PathFileType	4	(X/Y/Z)	D:\TRACE\v60_Jaco2_6-2-23\JustArmDRS_Motion3_5-v60.trc
DataRate	CameraRate	NumFrames	NumMarkers	Units	OrigDataRate	OrigDataStartFrame	OrigNumFrames
100.00	100.00	      42	9	mm	100.00	5251	      7000
Frame#	Time	front left toe			Front right toe			aft left toe			aft right toe			Arm			FL body			FR body			AL Body			AR Body			
		X1	Y1	Z1	X2	Y2	Z2	X3	Y3	Z3	X4	Y4	Z4	X5	Y5	Z5	X6	Y6	Z6	X7	Y7	Z7	X8	Y8	Z8	X9	Y9	Z9	

5251	52.500	-180.74956	8.98800	-241.29996	217.90642	9.46476	-175.36476	-270.07947	33.73842	396.69568	139.95885	30.74863	412.31577	47.35690	1058.57312	-653.62280	-38.98937	567.84717	-357.04745	118.51301	566.64203	-335.34631	-159.30699	595.72620	579.25232	-9.40674	586.01337	599.86475	
5252	52.510	-180.56027	8.77483	-241.38618	218.12291	9.31641	-175.43481	-269.66296	34.08309	396.66315	140.25699	31.09703	412.21393	47.72380	1057.99963	-654.15839	-38.94452	567.54279	-357.21643	118.26215	566.48004	-335.63821	-159.35934	596.25989	578.97430	-9.06334	586.37708	599.66162	
5253	52.520	-180.46594	8.38438	-241.29279	218.27846	9.07932	-175.52792	-268.43985	33.59680	396.55960	140.69238	31.40972	412.10062	47.70263	1057.49731	-654.92896	-38.57378	567.15839	-357.28119	118.46059	566.23798	-335.73898	-159.15419	596.49170	578.87836	-8.95387	587.00037	599.54041	
5254	52.530	-180.10773	7.95443	-241.01912	218.75772	9.06433	-175.42517	-269.41656	34.23263	396.46118	140.77852	31.58062	411.98108	47.19680	1056.77075	-655.50464	-38.40576	566.85815	-357.41019	118.71107	565.95575	-335.94376	-158.97375	597.03619	578.70862	-8.77512	587.49426	599.26379	
5255	52.540	-179.92441	7.88389	-241.42445	219.26030	8.92450	-175.48506	-268.97879	34.45305	396.49130	140.92009	31.86777	411.77563	47.80089	1056.06042	-655.99323	-38.32093	566.57544	-357.61780	118.60574	565.72754	-336.20282	-158.75813	597.65021	578.61053	-8.44131	587.93109	599.03528	
5256	52.550	-179.62149	7.52311	-241.16096	219.86673	8.96267	-175.47847	-268.64352	34.88628	396.29501	140.98796	32.10524	411.59952	48.00342	1055.36328	-656.82068	-38.13475	566.24884	-357.82883	119.02087	565.10876	-336.18793	-158.37274	597.98926	578.56683	-8.38265	588.25024	598.81476	
5257	52.560	-179.34731	7.27058	-241.25581	219.94565	8.82031	-175.52045	-268.37445	35.26681	396.17978	141.33446	32.37855	411.62640	47.96528	1054.88757	-657.28418	-37.97375	565.90234	-357.92169	120.08768	564.73126	-336.29898	-158.06258	598.30444	578.27179	-8.06796	588.71271	598.64233	
5258	52.570	-178.92628	7.24594	-241.56276	220.11884	8.66267	-175.59334	-268.43665	35.60896	396.09576	141.53908	32.73940	411.64755	48.16298	1054.45374	-657.62866	-37.71688	565.43323	-357.92792	120.48678	564.43011	-336.58691	-158.00618	598.57581	577.86639	-7.89416	589.11774	598.46649	
5259	52.580	-178.61057	6.97461	-241.68782	220.21971	8.27170	-176.07451	-268.15411	35.79637	396.12207	141.64522	33.02164	411.43057	48.47558	1053.80627	-658.16766	-37.54839	565.04059	-358.11151	120.60777	564.25494	-336.82620	-157.52937	598.99176	577.79749	-7.72019	589.39124	598.42316	
5260	52.590	-178.33116	6.68340	-241.73318	220.46901	8.09593	-176.21222	-267.53757	36.02470	395.86169	142.07704	33.35634	411.25592	48.57346	1053.45056	-658.78461	-37.22076	564.71655	-358.34875	120.60663	564.10938	-336.98434	-157.07591	599.36133	577.61981	-7.56676	589.85132	598.19043	
5261	52.600	-178.04855	6.48238	-241.81380	220.90277	7.94841	-176.34340	-267.18155	36.27129	395.66336	142.59192	33.70431	411.15720	48.44469	1053.09448	-659.32794	-37.09954	564.49573	-358.48557	120.06759	563.83014	-337.12875	-157.29991	599.82007	577.41467	-7.37855	590.39063	597.99933	
5262	52.610	-177.80956	6.22919	-241.95584	220.96425	7.57139	-176.50690	-267.29489	36.60535	395.70755	143.09114	34.03896	411.07721	48.58242	1052.57190	-659.97528	-36.95192	564.25958	-358.78183	118.95124	563.77612	-337.39105	-157.13686	600.19153	577.13208	-7.20070	590.77002	597.78107	
5263	52.620	-177.82159	6.01810	-241.87444	221.04095	7.40344	-176.56578	-267.06412	37.02040	395.46500	143.42130	34.29367	410.96750	48.97116	1051.95630	-660.57501	-36.76499	563.93170	-358.97647	119.18853	563.44202	-337.50482	-156.86888	600.67725	576.96680	-6.69579	591.19879	597.37939	
5264	52.630	-177.46109	5.69254	-241.90659	221.23134	7.31670	-176.53964	-266.90625	37.19318	395.35046	143.68063	34.52854	410.86172	49.26609	1051.34558	-660.97211	-36.51555	563.73041	-359.12158	119.64172	563.10742	-337.74908	-156.87248	601.22015	576.66833	-6.29327	591.66962	597.21887	
5265	52.640	-177.14752	5.29271	-242.16632	221.59843	7.27451	-176.58626	-266.74100	37.51307	394.63568	143.68257	34.66734	410.61774	49.59787	1050.73071	-661.65607	-36.34580	563.52551	-359.41071	120.04671	562.82935	-337.93533	-156.77249	601.60577	576.45667	-6.09324	592.11823	596.95941	
5266	52.650	-176.59911	5.27279	-242.07878	222.20999	7.24113	-176.57338	-266.37299	37.61320	394.67368	143.87987	34.88358	410.50861	50.11851	1050.16968	-662.27740	-36.11737	563.19177	-359.68100	120.20760	562.58832	-338.26523	-156.27710	601.97327	576.27344	-6.02862	592.48395	596.78693	
5267	52.660	-176.37198	5.46226	-242.39615	222.65756	7.27335	-176.39079	-265.67654	37.71571	395.19531	143.99954	35.13342	410.41888	50.30259	1049.65137	-662.68201	-35.98771	562.86365	-359.86746	120.98136	562.17706	-338.46994	-156.05348	602.51788	576.10608	-5.84718	592.98511	596.62085	
5268	52.670	-176.03027	5.20021	-242.59731	222.94319	7.09302	-176.56561	-265.51862	38.24094	395.05145	144.24895	35.49791	410.27328	50.59062	1048.97131	-663.21368	-35.75019	562.46326	-360.06750	121.45814	561.76727	-338.75076	-155.71329	602.81342	575.87769	-5.60720	593.21484	596.55670	
5269	52.680	-175.78551	4.96628	-242.71107	223.22687	6.71987	-176.96158	-265.55545	39.22052	393.89172	144.72742	35.88832	410.26520	50.84481	1048.49878	-663.87720	-35.53049	562.16290	-360.22360	121.24557	561.46759	-338.61719	-155.35504	602.97101	575.80811	-5.23027	593.74628	596.39886	
5270	52.690	-175.38815	4.76860	-242.77481	223.65239	6.54049	-177.13243	-265.07538	39.35787	393.88708	145.62248	36.36324	410.29596	50.81294	1048.05383	-664.46082	-35.13134	561.84894	-360.29700	121.42319	561.33105	-338.81314	-154.87457	603.33160	575.62158	-5.20277	594.09283	596.08606	
5271	52.700	-175.11055	4.45945	-242.77161	223.90105	6.15270	-177.51018	-264.55276	39.44285	393.89615	146.11145	36.64295	410.24451	50.75483	1047.63892	-664.90265	-34.99118	561.50842	-360.16724	121.54333	561.11865	-339.07230	-154.67392	603.83868	575.39404	-4.88277	594.33881	595.76477	
5272	52.710	-174.71143	4.30808	-242.78914	224.20094	6.19856	-177.37624	-264.13766	39.12495	394.63834	146.30577	36.90890	410.11356	51.28869	1047.17444	-665.40106	-34.57354	561.29590	-360.61868	121.87924	560.92181	-339.27069	-154.41815	604.15680	575.15607	-4.47510	594.67749	595.56830	
5273	52.720	-174.37886	4.13654	-242.91301	224.47859	6.14036	-177.34419	-263.74518	39.37469	394.40018	146.30710	37.07402	409.74594	51.69437	1046.78381	-665.80133	-34.24952	561.02740	-360.77570	122.27410	560.75592	-339.50351	-154.11429	604.39337	574.86639	-4.02109	595.23877	595.32062	
5274	52.730	-174.14154	4.08319	-243.02721	224.83746	6.07995	-177.46088	-263.27499	39.53045	394.29742	146.46234	37.23435	409.61142	51.85196	1046.45288	-666.11737	-33.95190	560.72571	-360.91107	122.49091	560.58105	-339.67145	-153.80827	604.62646	574.60657	-3.58588	595.50592	595.26160	
5275	52.740	-173.73773	3.91150	-243.22899	225.30209	6.08671	-177.47891	-263.07452	39.72616	394.29431	146.75380	37.42640	409.59085	52.03551	1046.05078	-666.70703	-33.77039	560.53302	-361.08322	123.29373	560.06781	-339.92624	-153.63658	605.07837	574.52209	-3.38108	595.76837	595.07495	
5276	52.750	-172.80144	3.50441	-243.70515	225.57121	6.07737	-177.46898	-262.80988	40.03388	394.27682	147.18448	37.57545	409.53043	52.56415	1045.60352	-667.30701	-33.36917	560.33862	-361.26495	123.50906	559.80939	-340.23349	-153.09486	605.50568	574.26233	-3.23264	596.10065	594.97211	
5277	52.760	-172.84550	3.78116	-243.62531	225.78917	5.91113	-177.51120	-262.58621	40.22108	394.15744	147.81770	37.77354	409.51453	52.92257	1045.01050	-667.72095	-33.07747	560.10272	-361.46017	123.30028	559.60571	-340.14502	-152.76181	605.72949	574.12140	-2.81158	596.57294	594.65735	
5278	52.770	-172.64680	3.75674	-243.66049	226.26111	5.64865	-177.54979	-262.08640	40.46856	394.10175	148.19298	37.98672	409.43542	53.06772	1044.60950	-668.06549	-32.70205	559.89844	-361.60699	123.83900	559.38055	-340.31714	-152.63953	606.07159	573.90430	-2.42788	597.01581	594.39331	
5279	52.780	-172.44534	3.39837	-243.51393	226.75638	5.37919	-177.58275	-261.69614	40.81581	393.98993	148.59933	38.15798	409.22919	53.41727	1044.21997	-668.61890	-32.54562	559.76892	-361.97153	124.15967	559.26550	-340.55142	-152.11708	606.50269	573.54285	-1.94860	597.13843	594.34814	
5280	52.790	-172.07474	3.19328	-243.54063	227.28140	5.24421	-177.74530	-261.22971	40.84142	393.89276	148.82327	38.23856	408.97797	53.67133	1043.74854	-669.24438	-32.35965	559.51685	-362.21286	124.33262	559.16510	-340.77356	-151.86131	606.75348	573.33392	-1.61378	597.48291	594.07483	
5281	52.800	-171.55685	3.00974	-243.62311	227.40192	5.04999	-178.09727	-260.59418	40.85270	393.83740	148.93094	38.31348	408.83023	53.82868	1043.17346	-669.80786	-31.97838	559.28113	-362.40912	124.58713	558.86969	-340.97928	-151.82863	607.20734	573.26825	-1.39114	597.87323	593.91022	
5282	52.810	-171.12627	2.80762	-243.67955	227.79100	5.10950	-178.05296	-260.04654	40.96254	393.65869	149.23663	38.53652	408.76971	54.39898	1042.68896	-670.46649	-31.57108	558.99701	-362.52551	124.99760	558.41919	-341.06482	-151.22513	607.50616	573.09216	-1.02736	598.28644	593.74377	
5283	52.820	-170.77969	2.89823	-243.95178	228.13680	5.07604	-178.12794	-259.75870	41.10613	393.59509	149.75493	38.81715	408.81671	54.62027	1042.53979	-671.07422	-31.23782	558.84265	-362.66486	125.89098	558.05304	-341.18472	-150.70758	607.79083	573.04095	-0.76697	598.54053	593.57849	
5284	52.830	-170.31152	2.73538	-244.09508	228.42834	5.01063	-178.40378	-259.60178	41.45542	393.47858	150.62396	39.17023	408.80685	54.90357	1042.40259	-671.73669	-31.02989	558.62054	-362.74030	126.39172	557.93402	-341.37698	-150.23636	607.95160	572.88696	-0.44815	598.89008	593.37891	
5285	52.840	-170.02072	2.63536	-244.12122	228.96027	5.10221	-178.31255	-259.32669	41.65909	393.43100	151.12671	39.42013	408.76144	55.55339	1042.16089	-672.60522	-30.56096	558.32001	-362.79898	126.50402	557.84845	-341.60709	-150.05801	608.16748	572.71069	-0.13600	599.03326	593.27875	
5286	52.850	-169.61427	2.35733	-243.93971	229.29263	5.00601	-178.25496	-259.08804	41.98039	393.28662	151.31549	39.50692	408.72885	56.03667	1041.97327	-673.18945	-30.27396	558.16650	-362.83090	126.26357	557.74127	-341.45636	-149.58583	608.44861	572.76398	0.73467	599.20551	593.12268	
5287	52.860	-169.28337	2.18689	-243.95007	229.82262	4.85476	-178.17630	-258.56732	42.08311	393.34360	151.55019	39.48560	408.64252	56.39204	1041.88867	-674.20099	-29.97018	558.02679	-362.86301	126.60391	557.64893	-341.57565	-149.24669	608.54181	572.60822	1.21263	599.44623	593.02130	
5288	52.870	-168.79808	1.93676	-243.93794	230.34741	4.92588	-178.03062	-258.04645	42.07631	393.23068	151.99182	39.65432	408.53760	56.99928	1041.62158	-675.00195	-29.65744	557.86523	-362.89792	127.06143	557.58276	-341.65347	-148.79688	608.83978	572.41150	1.56811	599.73901	592.94360	
5289	52.880	-168.48985	1.92907	-243.93730	230.73012	4.71563	-178.10776	-257.50424	42.15664	393.28888	152.31934	39.75700	408.45853	57.50415	1041.25989	-675.85120	-29.18594	557.72461	-362.94711	127.30315	557.51556	-341.72751	-148.41583	609.14484	572.23547	1.81945	600.05829	592.90179	
5290	52.890	-168.11667	1.87659	-243.96446	231.17880	4.52911	-178.23929	-257.14890	42.27157	393.24268	152.80933	39.92706	408.42432	57.85622	1040.89990	-676.77515	-28.91792	557.60681	-363.06494	127.68208	557.40234	-341.83749	-147.87990	609.32135	572.16095	2.03530	600.23254	592.87970	
5291	52.900	-167.51212	1.86050	-244.05986	231.17281	4.39055	-178.45636	-256.90479	42.54813	393.17508	153.30330	40.11187	408.48450	58.39383	1040.63989	-677.64978	-29.18895	557.91925	-363.60251	127.91939	557.25940	-341.94330	-147.54300	609.51080	572.14276	2.39574	600.41766	592.79407	
5292	52.910	-166.90132	1.72146	-244.21201	231.55635	4.32501	-178.76036	-256.57428	42.67653	393.26154	153.62340	40.13538	408.32571	58.95035	1040.38013	-678.34784	-28.60393	557.61469	-363.66138	128.82614	556.94543	-342.07269	-147.29922	609.66742	572.07874	2.81254	600.79651	592.66412	
